<svg width="24" height="21" viewBox="0 0 24 21" fill="none" xmlns="http://www.w3.org/2000/svg">
<path d="M12.875 3.59919C13.35 3.27715 13.6667 2.69289 13.6667 2.03502C13.6667 1.01831 12.9208 0.194824 12 0.194824C11.0792 0.194824 10.3333 1.01831 10.3333 2.03502C10.3333 2.69749 10.65 3.27715 11.125 3.59919L8.7375 8.87135C8.35833 9.70863 7.375 9.94786 6.7125 9.3636L3 6.08345C3.20833 5.77522 3.33333 5.39338 3.33333 4.97933C3.33333 3.96262 2.5875 3.13914 1.66667 3.13914C0.745833 3.13914 0 3.96262 0 4.97933C0 5.99604 0.745833 6.81953 1.66667 6.81953C1.675 6.81953 1.6875 6.81953 1.69583 6.81953L3.6 18.3852C3.82917 19.7837 4.93333 20.805 6.225 20.805H17.775C19.0625 20.805 20.1667 19.7883 20.4 18.3852L22.3042 6.81953C22.3125 6.81953 22.325 6.81953 22.3333 6.81953C23.2542 6.81953 24 5.99604 24 4.97933C24 3.96262 23.2542 3.13914 22.3333 3.13914C21.4125 3.13914 20.6667 3.96262 20.6667 4.97933C20.6667 5.39338 20.7917 5.77522 21 6.08345L17.2875 9.3636C16.625 9.94786 15.6417 9.70863 15.2625 8.87135L12.875 3.59919Z" fill="#FFD43B"/>
</svg>
